# Blender 3.5.1
# www.blender.org
mtllib subtraction.mtl
o Cube
v -100.000000 -100.000000 100.000000
v 0.933421 -0.200677 -0.706601
v -100.000000 100.000000 100.000000
v -100.000000 -100.000000 -100.000000
v -100.000000 100.000000 -100.000000
v 100.000000 -100.000000 100.000000
v 100.000000 100.000000 100.000000
v 100.000000 -100.000000 -100.000000
v 0.933421 100.000000 -100.000000
v 0.933421 -0.200677 -100.000000
v 100.000000 -0.200677 -100.000000
v 100.000000 -0.200677 -0.706601
v 100.000000 100.000000 -0.706601
v 0.933421 100.000000 -0.706601
vn -1.0000 -0.0000 -0.0000
vn -0.0000 -0.0000 -1.0000
vn 1.0000 -0.0000 -0.0000
vn -0.0000 -0.0000 1.0000
vn -0.0000 -1.0000 -0.0000
vn -0.0000 1.0000 -0.0000
vt 0.375000 0.000000
vt 0.375000 1.000000
vt 0.125000 0.750000
vt 0.375000 0.000000
vt 0.375000 1.000000
vt 0.125000 0.750000
vt 0.625000 0.000000
vt 0.625000 1.000000
vt 0.875000 0.750000
vt 0.375000 0.250000
vt 0.125000 0.500000
vt 0.625000 0.250000
vt 0.875000 0.500000
vt 0.375000 0.750000
vt 0.625000 0.750000
vt 0.375000 0.500000
vt 0.625000 0.376167
vt 0.748833 0.500000
vt 0.500251 0.124117
vt 0.499749 0.376167
vt 0.375000 0.124117
vt 0.125000 0.625883
vt 0.499749 0.500000
vt 0.248833 0.625883
vt 0.499749 0.624117
vt 0.375000 0.876167
vt 0.248833 0.750000
vt 0.625000 0.624117
vt 0.500251 0.876167
vt 0.748833 0.624117
vt 0.500251 0.000000
vt 0.500251 1.000000
s 0
f 1/1/1 3/7/1 5/12/1 4/10/1
f 8/16/2 4/10/2 5/12/2 9/17/2 10/20/2 11/23/2
f 7/15/3 6/14/3 8/16/3 11/23/3 12/25/3 13/28/3
f 6/14/4 7/15/4 3/8/4 1/2/4
f 4/11/5 8/16/5 6/14/5 1/3/5
f 9/18/6 5/13/6 3/9/6 7/15/6 13/28/6 14/30/6
f 14/31/3 2/4/3 10/21/3 9/19/3
f 12/26/2 2/5/2 14/32/2 13/29/2
f 12/27/6 11/24/6 10/22/6 2/6/6
